<?xml version="1.0" standalone="no"?>
<!DOCTYPE svg PUBLIC "-//W3C//DTD SVG 20010904//EN"
 "http://www.w3.org/TR/2001/REC-SVG-20010904/DTD/svg10.dtd">
<svg version="1.0" xmlns="http://www.w3.org/2000/svg"
 width="512.000000pt" height="512.000000pt" viewBox="0 0 512.000000 512.000000"
 preserveAspectRatio="xMidYMid meet">
<metadata>
Created by potrace 1.16, written by Peter Selinger 2001-2019
</metadata>
<g transform="translate(0.000000,512.000000) scale(0.100000,-0.100000)"
fill="#000000" stroke="none">
<path d="M1968 5101 c-110 -35 -214 -123 -261 -218 l-20 -42 -233 -3 c-223 -3
-234 -4 -255 -24 -13 -14 -23 -39 -26 -68 l-6 -46 -406 0 c-336 0 -416 -3
-459 -15 -68 -20 -151 -96 -183 -167 l-24 -53 0 -2115 0 -2115 26 -55 c37 -78
71 -114 141 -149 l61 -31 1791 0 1791 0 50 24 c58 27 118 84 148 141 22 40 22
46 27 790 l5 750 424 645 c233 355 432 665 443 689 43 94 22 228 -48 310 -36
43 -163 127 -212 141 -54 15 -142 12 -195 -6 -77 -26 -123 -78 -272 -307
l-140 -215 -5 761 c-6 848 -1 794 -76 877 -21 23 -61 54 -88 68 l-51 27 -427
3 -428 3 0 23 c0 13 -5 38 -11 56 -19 54 -49 60 -292 60 l-213 0 -16 33 c-50
102 -156 193 -265 227 -84 26 -215 26 -295 1z m279 -179 c54 -28 116 -99 138
-158 36 -97 27 -94 282 -94 l223 0 0 -205 0 -205 -775 0 -775 0 0 205 0 205
223 0 c252 0 243 -3 272 80 60 171 255 252 412 172z m-1077 -462 l0 -70 -357
0 c-386 -1 -382 0 -403 -54 -14 -37 -14 -3944 0 -3981 22 -58 -66 -55 1703
-55 1160 0 1633 3 1656 11 17 6 36 19 41 29 6 12 10 187 10 449 l0 430 70 107
70 108 0 -585 c0 -562 -1 -585 -20 -616 -10 -18 -34 -40 -52 -50 -31 -17 -117
-18 -1780 -18 l-1747 0 -27 21 c-15 11 -37 33 -48 48 l-21 27 0 2082 c0 2075
0 2082 20 2117 41 70 43 70 488 70 l397 0 0 -70z m2716 54 c18 -9 43 -31 54
-49 20 -32 20 -48 20 -900 l0 -868 -67 -105 -68 -105 -3 928 -2 929 -22 23
-21 23 -359 0 -358 0 0 70 0 70 396 0 c343 0 401 -2 430 -16z m-2716 -324 c0
-37 23 -85 45 -94 9 -3 416 -6 904 -6 l888 0 21 23 c11 12 24 41 28 65 l7 42
293 0 294 0 0 -999 0 -1000 -230 -352 c-126 -193 -230 -355 -230 -360 0 -5
-273 -9 -623 -9 l-624 0 -23 -25 c-34 -37 -33 -90 4 -121 l27 -24 614 0 615 0
-6 -108 c-3 -59 -7 -122 -10 -140 l-5 -32 -605 0 c-376 0 -612 -4 -624 -10
-30 -16 -42 -66 -26 -105 11 -26 24 -36 53 -45 27 -8 227 -10 678 -8 l640 3
188 97 187 97 0 -305 0 -304 -1540 0 -1540 0 0 1875 0 1875 300 0 300 0 0 -30z
m3488 -897 c-43 -72 -1180 -1808 -1188 -1817 -5 -5 -24 1 -43 13 l-35 22 585
895 c386 590 595 900 612 909 14 8 41 14 59 15 l34 0 -24 -37z m191 -109 c6
-20 4 -43 -3 -65 -16 -45 -1153 -1783 -1169 -1787 -7 -1 -24 8 -39 20 l-27 23
607 927 c334 510 610 923 615 919 4 -4 11 -21 16 -37z m-1380 -1930 l64 -43
-92 -45 c-50 -25 -93 -46 -96 -46 -7 0 -6 74 1 149 l7 61 26 -16 c14 -10 55
-37 90 -60z"/>
<path d="M2039 4801 c-23 -23 -29 -38 -29 -71 0 -118 177 -141 206 -26 3 14 3
38 0 52 -19 76 -120 102 -177 45z"/>
<path d="M1557 3733 c-10 -3 -107 -85 -215 -183 l-197 -179 -70 68 c-38 37
-83 71 -98 75 -35 8 -77 -11 -94 -44 -25 -47 -8 -79 95 -184 110 -111 146
-133 191 -114 41 18 478 416 491 448 27 65 -33 130 -103 113z"/>
<path d="M1944 3726 c-56 -25 -65 -119 -14 -146 12 -6 269 -10 685 -10 l666 0
24 25 c32 31 32 75 1 112 l-24 28 -654 2 c-535 2 -659 0 -684 -11z"/>
<path d="M1924 3266 c-37 -31 -38 -84 -4 -121 l23 -25 667 0 c732 0 701 -3
715 61 9 39 -10 83 -41 98 -18 8 -214 11 -679 11 l-654 0 -27 -24z"/>
<path d="M1557 2973 c-10 -3 -107 -85 -215 -183 l-197 -179 -70 68 c-38 37
-83 71 -98 75 -35 8 -77 -11 -94 -44 -25 -47 -8 -79 95 -184 110 -111 146
-133 191 -114 41 18 478 416 491 448 27 65 -33 130 -103 113z"/>
<path d="M1920 2815 c-34 -37 -33 -90 4 -121 l27 -24 660 0 661 0 30 30 c26
27 30 36 25 68 -13 76 31 72 -716 72 l-668 0 -23 -25z"/>
<path d="M1927 2378 c-41 -32 -39 -115 3 -138 12 -6 271 -10 689 -10 l670 0
20 26 c27 34 27 74 0 108 l-20 26 -673 0 c-522 0 -676 -3 -689 -12z"/>
<path d="M1557 2213 c-10 -3 -107 -85 -215 -183 l-197 -179 -70 68 c-38 37
-83 71 -98 75 -58 14 -117 -44 -102 -102 8 -34 190 -220 232 -238 27 -12 38
-12 62 -2 41 18 478 417 491 448 27 65 -33 130 -103 113z"/>
<path d="M1924 1926 c-37 -31 -38 -84 -4 -121 l23 -25 668 0 c747 0 703 -4
716 72 5 32 1 41 -25 68 l-30 30 -661 0 -660 0 -27 -24z"/>
<path d="M1557 1453 c-10 -3 -107 -85 -215 -183 l-197 -179 -70 68 c-38 37
-83 71 -98 75 -35 8 -77 -11 -94 -44 -25 -47 -8 -79 95 -184 110 -111 146
-133 191 -114 41 18 478 416 491 448 27 65 -33 130 -103 113z"/>
</g>
</svg>
