<?xml version="1.0" standalone="no"?>
<!DOCTYPE svg PUBLIC "-//W3C//DTD SVG 20010904//EN"
 "http://www.w3.org/TR/2001/REC-SVG-20010904/DTD/svg10.dtd">
<svg version="1.0" xmlns="http://www.w3.org/2000/svg"
 width="512.000000pt" height="512.000000pt" viewBox="0 0 512.000000 512.000000"
 preserveAspectRatio="xMidYMid meet">
<metadata>
Created by potrace 1.16, written by Peter Selinger 2001-2019
</metadata>
<g transform="translate(0.000000,512.000000) scale(0.100000,-0.100000)"
fill="#000000" stroke="none">
<path d="M2243 5100 c-67 -24 -130 -68 -182 -126 -80 -91 -110 -194 -111 -376
l0 -88 154 0 154 0 3 108 c4 117 15 146 66 179 24 16 55 18 283 18 228 0 259
-2 283 -18 50 -33 60 -60 65 -178 l5 -109 153 0 154 0 0 88 c-1 182 -31 285
-111 376 -52 59 -108 97 -182 125 -55 20 -74 21 -370 20 -277 0 -318 -3 -364
-19z"/>
<path d="M1035 4206 c-57 -25 -80 -67 -144 -258 -73 -219 -76 -255 -27 -304
l34 -34 1662 0 1662 0 34 34 c49 49 46 85 -27 304 -64 193 -88 234 -146 258
-48 20 -3003 20 -3048 0z"/>
<path d="M1010 3292 c0 -32 337 -3072 346 -3119 11 -56 56 -116 111 -146 l51
-27 1045 2 1045 3 44 30 c28 20 52 49 70 85 26 53 33 108 197 1600 94 850 173
1557 176 1573 l5 27 -1545 0 -1545 0 0 -28z"/>
</g>
</svg>
