<?xml version="1.0" standalone="no"?>
<!DOCTYPE svg PUBLIC "-//W3C//DTD SVG 20010904//EN"
 "http://www.w3.org/TR/2001/REC-SVG-20010904/DTD/svg10.dtd">
<svg version="1.0" xmlns="http://www.w3.org/2000/svg"
 width="50.000000pt" height="50.000000pt" viewBox="0 0 50.000000 50.000000"
 preserveAspectRatio="xMidYMid meet">
<metadata>
Created by potrace 1.16, written by Peter Selinger 2001-2019
</metadata>
<g transform="translate(0.000000,50.000000) scale(0.100000,-0.100000)"
fill="#000000" stroke="none">
<path d="M143 490 c-33 -13 -43 -42 -43 -119 0 -53 5 -78 21 -106 27 -45 20
-61 -35 -85 -57 -24 -86 -53 -86 -85 l0 -25 136 0 c87 0 133 4 129 10 -4 6
-55 10 -121 10 -135 0 -140 7 -43 60 55 30 64 39 67 66 2 17 -5 47 -15 65 -11
20 -20 59 -21 96 -3 54 0 63 20 77 25 18 78 22 78 6 0 -5 7 -10 15 -10 23 0
37 -36 27 -73 -5 -17 -7 -38 -5 -45 3 -7 -5 -28 -16 -48 -25 -41 -27 -77 -6
-98 8 -8 15 -32 15 -54 0 -29 7 -46 27 -66 24 -25 33 -27 84 -24 50 3 61 0 83
-21 20 -19 29 -22 38 -13 9 9 6 18 -13 38 -21 22 -24 33 -21 83 3 51 1 60 -24
84 -35 35 -108 38 -142 6 -31 -28 -39 -3 -14 42 22 40 36 148 22 183 -17 45
-100 69 -157 46z m267 -300 c43 -43 11 -120 -50 -120 -61 0 -93 77 -50 120 11
11 33 20 50 20 17 0 39 -9 50 -20z"/>
</g>
</svg>
