<?xml version="1.0" standalone="no"?>
<!DOCTYPE svg PUBLIC "-//W3C//DTD SVG 20010904//EN"
 "http://www.w3.org/TR/2001/REC-SVG-20010904/DTD/svg10.dtd">
<svg version="1.0" xmlns="http://www.w3.org/2000/svg"
 width="48.000000pt" height="46.000000pt" viewBox="0 0 48.000000 46.000000"
 preserveAspectRatio="xMidYMid meet">
<metadata>
Created by potrace 1.16, written by Peter Selinger 2001-2019
</metadata>
<g transform="translate(0.000000,46.000000) scale(0.100000,-0.100000)"
fill="#000000" stroke="none">
<path d="M143 450 c-33 -13 -43 -42 -43 -119 0 -53 5 -78 21 -106 27 -45 20
-61 -35 -85 -57 -24 -86 -53 -86 -85 l0 -25 130 0 c80 0 130 4 130 10 0 6 -45
10 -116 10 -135 0 -141 7 -43 60 55 30 64 39 67 66 2 17 -5 47 -15 65 -11 20
-20 59 -21 96 -3 54 0 63 20 77 25 18 78 22 78 6 0 -5 7 -10 15 -10 23 0 37
-36 27 -73 -5 -17 -7 -38 -5 -45 3 -7 -5 -28 -16 -48 -22 -36 -26 -60 -15 -88
9 -24 24 -19 24 9 0 13 8 39 18 57 22 39 35 148 22 182 -17 45 -100 69 -157
46z"/>
</g>
</svg>
