<?xml version="1.0" standalone="no"?>
<!DOCTYPE svg PUBLIC "-//W3C//DTD SVG 20010904//EN"
 "http://www.w3.org/TR/2001/REC-SVG-20010904/DTD/svg10.dtd">
<svg version="1.0" xmlns="http://www.w3.org/2000/svg"
 width="512.000000pt" height="512.000000pt" viewBox="0 0 512.000000 512.000000"
 preserveAspectRatio="xMidYMid meet">
<metadata>
Created by potrace 1.16, written by Peter Selinger 2001-2019
</metadata>
<g transform="translate(0.000000,512.000000) scale(0.100000,-0.100000)"
fill="#000000" stroke="none">
<path d="M1985 3214 c-49 -14 -108 -33 -130 -43 -96 -43 -161 -129 -201 -269
-3 -9 -14 -7 -45 8 -58 30 -126 96 -160 155 -34 59 -36 46 -14 -72 34 -177
113 -349 208 -450 l31 -33 -33 -11 c-32 -11 -52 -22 -183 -92 -52 -28 -63 -40
-113 -123 -55 -93 -66 -135 -46 -173 11 -19 45 -5 -584 -243 -247 -94 -296
-120 -389 -209 l-70 -66 33 -79 c227 -547 636 -986 1166 -1254 288 -146 611
-236 918 -257 l92 -6 -3 73 c-3 50 1 86 13 116 16 41 15 44 -4 63 -25 25 -26
30 -5 59 11 16 25 22 54 22 36 0 43 5 83 57 169 222 212 408 118 511 -19 20
-39 32 -55 32 -30 0 -56 33 -56 72 0 23 -4 28 -24 28 -68 0 -108 47 -85 102 6
15 20 30 30 33 14 5 19 16 19 41 0 45 29 74 75 74 33 0 34 1 23 25 -15 32 2
72 36 85 l25 9 -22 48 c-18 39 -22 66 -22 148 0 124 21 176 116 284 95 108 96
111 75 123 -10 6 -24 25 -32 44 -12 29 -12 39 0 68 20 47 42 56 135 56 66 0
81 3 81 15 0 8 -25 55 -55 104 -53 86 -58 91 -139 135 -46 25 -105 55 -131 66
l-48 21 6 -53 c4 -29 9 -69 13 -89 l6 -37 -58 -22 c-33 -12 -106 -34 -164 -48
-95 -24 -123 -27 -290 -27 -203 0 -278 11 -448 67 -91 30 -93 32 -87 57 4 14
11 50 16 80 4 29 10 55 12 57 2 2 26 -17 55 -42 67 -58 209 -147 280 -176 85
-33 233 -32 320 4 231 95 422 286 512 511 32 81 69 230 70 281 0 26 -4 23 -41
-33 -39 -59 -136 -141 -166 -141 -7 0 -13 9 -13 20 0 36 -48 128 -91 175 -53
57 -85 74 -221 114 -126 36 -158 38 -183 11 l-18 -20 -19 20 c-24 26 -60 25
-173 -6z m209 -156 c20 -49 57 -78 122 -95 80 -20 163 -66 213 -117 l41 -42
-26 -53 c-45 -89 -159 -155 -233 -132 -50 14 -88 54 -102 103 -8 32 -14 39
-31 36 -12 -2 -24 -10 -28 -18 -4 -8 -15 -31 -24 -51 -55 -114 -241 -81 -322
56 -25 43 -25 46 -10 71 33 49 133 112 223 140 92 28 127 54 145 104 5 17 12
30 14 30 2 0 10 -15 18 -32z"/>
<path d="M3401 2396 c-51 -18 -111 -74 -134 -125 -14 -32 -21 -75 -25 -151
l-5 -107 -46 17 -46 18 -30 -33 -30 -33 27 -31 c16 -17 28 -38 28 -47 0 -9
-40 -58 -90 -109 -53 -55 -90 -102 -90 -113 0 -24 25 -52 46 -52 9 0 53 36
100 81 74 71 88 80 116 77 30 -3 35 -9 55 -58 32 -78 31 -194 -1 -272 -23 -56
-23 -58 -5 -63 31 -10 52 -51 45 -85 -5 -29 -4 -30 29 -30 l35 0 0 458 c0 435
1 459 20 489 41 69 193 72 262 6 l29 -28 309 0 309 0 28 26 c15 15 38 32 50
38 31 16 139 14 177 -4 63 -30 61 -8 66 -600 3 -297 8 -528 13 -512 4 15 12
27 17 27 6 0 10 6 10 14 0 8 6 21 14 29 8 7 28 42 45 76 l32 62 -3 437 c-3
429 -3 438 -25 478 -28 53 -91 107 -142 122 -56 17 -1143 15 -1190 -2z"/>
<path d="M3527 1852 c-14 -15 -17 -42 -17 -160 l0 -142 170 0 170 0 0 -160 0
-160 -170 0 -170 0 0 -142 c0 -79 4 -148 8 -154 18 -27 56 -34 191 -34 l141 0
0 165 0 165 160 0 160 0 0 160 0 160 160 0 160 0 6 24 c3 13 4 76 2 139 -4
161 0 157 -185 157 l-143 0 0 -160 0 -160 -160 0 -160 0 0 160 0 160 -153 0
c-136 0 -156 -2 -170 -18z"/>
<path d="M4177 1223 c-4 -3 -7 -75 -7 -160 l0 -153 149 0 c126 0 151 3 162 17
15 17 26 232 15 278 l-6 25 -154 0 c-84 0 -156 -3 -159 -7z"/>
<path d="M3350 997 c0 -38 -25 -67 -56 -67 -47 0 -104 -96 -104 -172 1 -83 82
-264 160 -358 l29 -35 1 333 c0 289 -2 332 -15 332 -10 0 -15 -10 -15 -33z"/>
</g>
</svg>
